<?xml version="1.0" encoding="UTF-8" standalone="no"?>
<svg
   xmlns:dc="http://purl.org/dc/elements/1.1/"
   xmlns:cc="http://creativecommons.org/ns#"
   xmlns:rdf="http://www.w3.org/1999/02/22-rdf-syntax-ns#"
   xmlns:svg="http://www.w3.org/2000/svg"
   xmlns="http://www.w3.org/2000/svg"
   xmlns:xlink="http://www.w3.org/1999/xlink"
   xmlns:sodipodi="http://sodipodi.sourceforge.net/DTD/sodipodi-0.dtd"
   xmlns:inkscape="http://www.inkscape.org/namespaces/inkscape"
   viewBox="3.4 358.7 781.99997 150.2"
   id="svg2"
   version="1.1"
   inkscape:version="0.91 r13725"
   sodipodi:docname="logo-lockup-white.svg"
   width="782"
   height="150.2">
  <metadata
     id="metadata26">
    <rdf:RDF>
      <cc:Work
         rdf:about="">
        <dc:format>image/svg+xml</dc:format>
        <dc:type
           rdf:resource="http://purl.org/dc/dcmitype/StillImage" />
        <dc:title></dc:title>
      </cc:Work>
    </rdf:RDF>
  </metadata>
  <defs
     id="defs24">
    <path
       d="m 568.417,290 -691.417,0 0,-448 691.417,0"
       id="a"
       inkscape:connector-curvature="0" />
  </defs>
  <sodipodi:namedview
     pagecolor="#ffffff"
     bordercolor="#666666"
     borderopacity="1"
     objecttolerance="10"
     gridtolerance="10"
     guidetolerance="10"
     inkscape:pageopacity="0"
     inkscape:pageshadow="2"
     inkscape:window-width="1366"
     inkscape:window-height="744"
     id="namedview22"
     showgrid="false"
     inkscape:zoom="0.5500618"
     inkscape:cx="16.394549"
     inkscape:cy="-142.6"
     inkscape:window-x="0"
     inkscape:window-y="24"
     inkscape:window-maximized="1"
     inkscape:current-layer="svg2" />
  <g
     id="g4"
     style="fill:#ffffff"
     transform="translate(66.846221,-10.986765)">
    <path
       d="m 186.6,434.52584 -2.3,0 -9,-31.4 c -0.8,-2.5 -1.3,-4.7 -1.7,-6.3 -0.3,1.7 -0.7,3.5 -1.3,5.6 -0.6,2.1 -3.5,12.9 -9,32.2 l -2.4,0 -11.2,-40.8 3,0 7.1,26.3 c 0.3,1.1 0.6,2.1 0.8,2.9 0.2,0.9 0.5,1.8 0.7,2.5 0.2,0.8 0.4,1.6 0.5,2.2 0.2,0.8 0.3,1.5 0.4,2.2 0.5,-2.5 1.4,-6.3 2.8,-11.5 l 6.9,-24.7 3.1,0 8.2,28.4 c 1,3.3 1.7,6 2.1,7.9 0.2,-1.4 0.6,-2.7 1,-4.3 0.4,-1.5 3.2,-12.2 8.6,-32 l 2.8,0 z m 39.5,-15.2 c 0,5 -1.2,8.8 -3.6,11.6 -2.4,2.7 -5.7,4.2 -10,4.2 -2.6,0 -5,-0.7 -7,-2 -2.1,-1.3 -3.6,-3.1 -4.7,-5.6 -1.1,-2.4 -1.7,-5.2 -1.7,-8.3 0,-5 1.2,-8.8 3.6,-11.5 2.4,-2.7 5.7,-4.1 9.9,-4.1 4.2,0 7.4,1.4 9.8,4.2 2.5,2.7 3.7,6.6 3.7,11.5 z m -24,0 c 0,4.2 0.9,7.4 2.7,9.8 1.9,2.3 4.4,3.5 7.8,3.5 3.4,0 6,-1.2 7.8,-3.5 1.8,-2.3 2.7,-5.6 2.7,-9.8 0,-4.2 -0.9,-7.4 -2.7,-9.8 -1.8,-2.4 -4.5,-3.4 -7.8,-3.4 -3.3,0 -6,1.2 -7.7,3.4 -1.9,2.3 -2.8,5.6 -2.8,9.8 z m 67.4,15.2 0,-19.8 c 0,-2.9 -0.6,-5.1 -1.8,-6.4 -1.2,-1.4 -2.9,-2.1 -5.3,-2.1 -3.1,0 -5.4,0.9 -6.9,2.5 -1.5,1.8 -2.2,4.4 -2.2,8.1 l 0,17.8 -2.8,0 0,-20.9 c 0,-5.1 -2.3,-7.7 -7,-7.7 -3.2,0 -5.5,1 -6.9,2.7 -1.5,1.9 -2.1,4.8 -2.1,8.9 l 0,16.7 -2.7,0 0,-30.2 2.2,0 0.6,4.2 0.2,0 c 0.9,-1.5 2.1,-2.6 3.6,-3.5 1.6,-0.8 3.2,-1.3 5.1,-1.3 4.8,0 7.8,1.8 9.2,5.4 l 0.1,0 c 1,-1.8 2.3,-3 4,-4 1.7,-1 3.5,-1.4 5.7,-1.4 3.3,0 5.8,0.9 7.4,2.6 1.7,1.8 2.4,4.6 2.4,8.4 l 0,19.8 -2.8,0 z m 22.5,0.5 c -4.4,0 -7.8,-1.4 -10.4,-4.1 -2.4,-2.7 -3.7,-6.5 -3.7,-11.4 0,-4.9 1.2,-8.7 3.6,-11.6 2.3,-2.9 5.6,-4.4 9.7,-4.4 3.6,0 6.3,1.3 8.5,3.7 2.1,2.5 3.1,5.9 3.1,10.2 l 0,2.2 -21.8,0 c 0,4.2 1,7.3 2.9,9.6 2,2.1 4.6,3.3 8.2,3.3 1.8,0 3.2,-0.1 4.6,-0.4 1.3,-0.2 2.9,-0.8 5,-1.6 l 0,2.5 c -1.8,0.8 -3.3,1.3 -4.8,1.6 -1.5,0.3 -3.1,0.4 -4.9,0.4 z m -0.8,-29 c -2.9,0 -5.3,1 -7,2.9 -1.8,2 -2.8,4.7 -3.1,8.3 l 18.8,0 c 0,-3.5 -0.8,-6.3 -2.2,-8.2 -1.7,-2 -3.8,-3 -6.5,-3 z m 38.8,28.5 0,-19.6 c 0,-3 -0.7,-5.3 -2,-6.6 -1.3,-1.4 -3.3,-2.1 -6,-2.1 -3.6,0 -6.3,0.9 -8,2.7 -1.7,1.9 -2.5,4.8 -2.5,8.9 l 0,16.7 -2.7,0 0,-30.3 2.3,0 0.5,4.2 0.2,0 c 2,-3.1 5.5,-4.8 10.5,-4.8 6.8,0 10.4,3.7 10.4,11 l 0,19.8 c 0,0.1 -2.7,0.1 -2.7,0.1 z"
       id="path6"
       inkscape:connector-curvature="0"
       sodipodi:nodetypes="ccccsccccccccccccccccccscsccssscsscssssscscscscsccsscscccccccsccsscscccscscscscccscccsssccccscscscsccccccsssc" />
    <path
       style="fill:#ffffff"
       d="m 164.69435,498.47754 -2.8,0 0,-38.1 -13.3,0 0,-2.7 29.4,0 0,2.6 -13.3,0 z m 28.6,0.5 c -4.4,0 -7.8,-1.4 -10.4,-4.1 -2.4,-2.7 -3.7,-6.5 -3.7,-11.4 0,-4.9 1.2,-8.7 3.6,-11.6 2.3,-2.9 5.6,-4.4 9.7,-4.4 3.6,0 6.3,1.3 8.5,3.7 2.1,2.5 3.1,5.9 3.1,10.2 l 0,2.2 -21.9,0 c 0,4.2 1,7.3 2.9,9.6 2,2.1 4.6,3.3 8.2,3.3 1.8,0 3.2,-0.1 4.6,-0.4 1.3,-0.2 2.9,-0.8 5,-1.6 l 0,2.5 c -1.8,0.8 -3.3,1.3 -4.8,1.6 -1.5,0.3 -3.1,0.4 -4.8,0.4 z m -0.8,-29 c -2.9,0 -5.3,1 -7,2.9 -1.8,2 -2.8,4.7 -3.1,8.3 l 18.8,0 c 0,-3.5 -0.8,-6.3 -2.2,-8.2 -1.7,-2 -3.9,-3 -6.5,-3 z m 29.7,29 c -4.3,0 -7.7,-1.4 -10.2,-4.1 -2.4,-2.7 -3.7,-6.5 -3.7,-11.4 0,-5 1.3,-9 3.8,-11.7 2.5,-2.8 6.1,-4.2 10.5,-4.2 2.6,0 5.2,0.5 7.5,1.4 l -0.8,2.4 c -2.6,-0.9 -4.9,-1.3 -6.8,-1.3 -3.7,0 -6.5,1.2 -8.5,3.4 -2,2.3 -2.8,5.6 -2.8,10 0,4.1 1,7.3 2.8,9.6 2,2.3 4.6,3.5 8,3.5 2.7,0 5.3,-0.5 7.7,-1.5 l 0,2.5 c -1.8,0.9 -4.3,1.4 -7.5,1.4 z m 35.1,-0.5 0,-19.6 c 0,-3 -0.7,-5.3 -2,-6.6 -1.3,-1.4 -3.3,-2.1 -6,-2.1 -3.6,0 -6.3,0.9 -8,2.7 -1.8,1.9 -2.5,4.8 -2.5,8.9 l 0,16.7 -2.7,0 0,-43.4 2.7,0 0,13.8 -0.1,3.9 0.2,0 c 1.2,-1.9 2.5,-3.1 4.3,-4 1.8,-0.8 3.9,-1.3 6.4,-1.3 6.8,0 10.4,3.7 10.4,11 l 0,19.8 c 0,0.2 -2.7,0.2 -2.7,0.2 z m 47,0 0,-19.8 c 0,-2.9 -0.6,-5.1 -1.8,-6.4 -1.2,-1.4 -2.9,-2.1 -5.3,-2.1 -3.1,0 -5.4,0.9 -6.9,2.5 -1.5,1.8 -2.2,4.4 -2.2,8.1 l 0,17.8 -2.8,0 0,-20.9 c 0,-5.1 -2.3,-7.7 -7,-7.7 -3.2,0 -5.5,1 -6.9,2.7 -1.5,1.9 -2.1,4.8 -2.1,8.9 l 0,16.7 -2.7,0 0,-30.2 2.2,0 0.6,4.2 0.2,0 c 0.9,-1.5 2.1,-2.6 3.6,-3.5 1.6,-0.8 3.2,-1.3 5.1,-1.3 4.8,0 7.8,1.8 9.2,5.4 l 0.1,0 c 1,-1.8 2.3,-3 4,-4 1.7,-1 3.5,-1.4 5.7,-1.4 3.3,0 5.8,0.9 7.4,2.6 1.7,1.8 2.4,4.6 2.4,8.4 l 0,19.8 -2.8,0 z m 28.8,0 -0.7,-4.8 -0.2,0 c -1.6,2 -3.1,3.3 -4.7,4.1 -1.6,0.8 -3.5,1.2 -5.7,1.2 -2.9,0 -5.3,-0.8 -6.9,-2.2 -1.7,-1.6 -2.4,-3.6 -2.4,-6.3 0,-2.9 1.3,-5.3 3.7,-6.9 2.4,-1.6 6.1,-2.5 10.7,-2.6 l 5.8,-0.2 0,-2.1 c 0,-2.9 -0.6,-5.1 -1.8,-6.5 -1.2,-1.5 -3,-2.2 -5.7,-2.2 -2.8,0 -5.8,0.8 -8.7,2.3 l -1.1,-2.4 c 3.3,-1.6 6.6,-2.3 9.9,-2.3 3.3,0 5.9,0.9 7.4,2.6 1.7,1.8 2.4,4.4 2.4,8.1 l 0,20.2 -2.1,0 z m -11.3,-2 c 3.2,0 5.8,-0.9 7.6,-2.7 1.9,-1.9 2.8,-4.4 2.8,-7.7 l 0,-3 -5.3,0.2 c -4.3,0.2 -7.3,0.9 -9.1,2 -1.9,1.2 -2.7,2.8 -2.7,5.3 0,1.9 0.6,3.4 1.8,4.4 1.2,1 2.9,1.5 4.9,1.5 z m 23.5,-11.3 15.5,-17 3.3,0 -11.9,13 13,17.4 -3.3,0 -11.5,-15.3 -5,4.5 0,10.8 -2.7,0 0,-43.5 2.7,0 0,21.8 z m 34.9,13.8 c -4.4,0 -7.8,-1.4 -10.4,-4.1 -2.4,-2.7 -3.7,-6.5 -3.7,-11.4 0,-4.9 1.2,-8.7 3.6,-11.6 2.3,-2.9 5.6,-4.4 9.7,-4.4 3.6,0 6.3,1.3 8.5,3.7 2.1,2.5 3.1,5.9 3.1,10.2 l 0,2.2 -21.9,0 c 0,4.2 1,7.3 2.9,9.6 2,2.2 4.6,3.3 8.2,3.3 1.8,0 3.2,-0.1 4.6,-0.4 1.3,-0.2 2.9,-0.8 5,-1.6 l 0,2.5 c -1.8,0.8 -3.3,1.3 -4.8,1.6 -1.5,0.3 -3,0.4 -4.8,0.4 z m -0.8,-29 c -2.9,0 -5.3,1 -7,2.9 -1.7,1.9 -2.8,4.7 -3.1,8.3 l 18.8,0 c 0,-3.5 -0.8,-6.3 -2.2,-8.2 -1.7,-2 -3.8,-3 -6.5,-3 z m 29.6,-2.4 c 1.3,0 2.6,0.1 4.1,0.4 l -0.5,2.6 c -1.3,-0.3 -2.5,-0.5 -3.9,-0.5 -2.6,0 -4.7,1.1 -6.3,3.3 -1.7,2.1 -2.4,5 -2.4,8.3 l 0,16.7 -2.7,0 0,-30.3 2.3,0 0.3,5.5 0.2,0 c 1.3,-2.2 2.5,-3.8 4,-4.7 1.2,-0.9 2.9,-1.3 4.9,-1.3 z m 26.8,23 c 0,2.7 -1.1,4.8 -3.1,6.3 -2.1,1.5 -5,2.1 -8.8,2.1 -4.1,0 -7.3,-0.6 -9.7,-1.9 l 0,-3 c 3,1.6 6.3,2.2 9.7,2.2 3,0 5.3,-0.5 6.8,-1.5 1.6,-1 2.3,-2.3 2.3,-4 0,-1.6 -0.6,-2.8 -1.9,-3.8 -1.3,-1.1 -3.2,-2.1 -6.1,-3 -3,-1.1 -5.2,-2.1 -6.3,-2.8 -1.3,-0.8 -2.1,-1.7 -2.7,-2.6 -0.6,-1 -1,-2.2 -1,-3.6 0,-2.2 1,-4.1 2.8,-5.4 2,-1.4 4.6,-2 8,-2 3.3,0 6.3,0.6 9.3,1.9 l -1.1,2.5 c -2.9,-1.3 -5.8,-1.9 -8.3,-1.9 -2.4,0 -4.4,0.4 -5.9,1.3 -1.5,0.8 -2.1,2 -2.1,3.4 0,1.6 0.6,2.8 1.7,3.8 1.2,1 3.3,2.1 6.6,3.2 2.7,1 4.7,1.9 6,2.6 1.3,0.8 2.1,1.7 2.8,2.7 0.7,1 1,2.2 1,3.5 z"
       id="path6-3"
       inkscape:connector-curvature="0"
       sodipodi:nodetypes="cccccccccscscscscccscccsssccccsscscsccscscsccscscscsccccccccsssccscscsccsscscccccccsccsscsccccccsscssccscsccscscccssscccsssccccccccccccccscscscscccscccsssscccssccscscccccccsscsccscsccccscsccscscccss" />
    <path
       sodipodi:nodetypes="ccccsccccccccccccccccccscsccssscsscssssscscscscsccsscscccccccsccsscscccscscscscccscccsssccccscscscsccccccsssc"
       inkscape:connector-curvature="0"
       id="path4589"
       d="m 186.6,434.52584 -2.3,0 -9,-31.4 c -0.8,-2.5 -1.3,-4.7 -1.7,-6.3 -0.3,1.7 -0.7,3.5 -1.3,5.6 -0.6,2.1 -3.5,12.9 -9,32.2 l -2.4,0 -11.2,-40.8 3,0 7.1,26.3 c 0.3,1.1 0.6,2.1 0.8,2.9 0.2,0.9 0.5,1.8 0.7,2.5 0.2,0.8 0.4,1.6 0.5,2.2 0.2,0.8 0.3,1.5 0.4,2.2 0.5,-2.5 1.4,-6.3 2.8,-11.5 l 6.9,-24.7 3.1,0 8.2,28.4 c 1,3.3 1.7,6 2.1,7.9 0.2,-1.4 0.6,-2.7 1,-4.3 0.4,-1.5 3.2,-12.2 8.6,-32 l 2.8,0 z m 39.5,-15.2 c 0,5 -1.2,8.8 -3.6,11.6 -2.4,2.7 -5.7,4.2 -10,4.2 -2.6,0 -5,-0.7 -7,-2 -2.1,-1.3 -3.6,-3.1 -4.7,-5.6 -1.1,-2.4 -1.7,-5.2 -1.7,-8.3 0,-5 1.2,-8.8 3.6,-11.5 2.4,-2.7 5.7,-4.1 9.9,-4.1 4.2,0 7.4,1.4 9.8,4.2 2.5,2.7 3.7,6.6 3.7,11.5 z m -24,0 c 0,4.2 0.9,7.4 2.7,9.8 1.9,2.3 4.4,3.5 7.8,3.5 3.4,0 6,-1.2 7.8,-3.5 1.8,-2.3 2.7,-5.6 2.7,-9.8 0,-4.2 -0.9,-7.4 -2.7,-9.8 -1.8,-2.4 -4.5,-3.4 -7.8,-3.4 -3.3,0 -6,1.2 -7.7,3.4 -1.9,2.3 -2.8,5.6 -2.8,9.8 z m 67.4,15.2 0,-19.8 c 0,-2.9 -0.6,-5.1 -1.8,-6.4 -1.2,-1.4 -2.9,-2.1 -5.3,-2.1 -3.1,0 -5.4,0.9 -6.9,2.5 -1.5,1.8 -2.2,4.4 -2.2,8.1 l 0,17.8 -2.8,0 0,-20.9 c 0,-5.1 -2.3,-7.7 -7,-7.7 -3.2,0 -5.5,1 -6.9,2.7 -1.5,1.9 -2.1,4.8 -2.1,8.9 l 0,16.7 -2.7,0 0,-30.2 2.2,0 0.6,4.2 0.2,0 c 0.9,-1.5 2.1,-2.6 3.6,-3.5 1.6,-0.8 3.2,-1.3 5.1,-1.3 4.8,0 7.8,1.8 9.2,5.4 l 0.1,0 c 1,-1.8 2.3,-3 4,-4 1.7,-1 3.5,-1.4 5.7,-1.4 3.3,0 5.8,0.9 7.4,2.6 1.7,1.8 2.4,4.6 2.4,8.4 l 0,19.8 -2.8,0 z m 22.5,0.5 c -4.4,0 -7.8,-1.4 -10.4,-4.1 -2.4,-2.7 -3.7,-6.5 -3.7,-11.4 0,-4.9 1.2,-8.7 3.6,-11.6 2.3,-2.9 5.6,-4.4 9.7,-4.4 3.6,0 6.3,1.3 8.5,3.7 2.1,2.5 3.1,5.9 3.1,10.2 l 0,2.2 -21.8,0 c 0,4.2 1,7.3 2.9,9.6 2,2.1 4.6,3.3 8.2,3.3 1.8,0 3.2,-0.1 4.6,-0.4 1.3,-0.2 2.9,-0.8 5,-1.6 l 0,2.5 c -1.8,0.8 -3.3,1.3 -4.8,1.6 -1.5,0.3 -3.1,0.4 -4.9,0.4 z m -0.8,-29 c -2.9,0 -5.3,1 -7,2.9 -1.8,2 -2.8,4.7 -3.1,8.3 l 18.8,0 c 0,-3.5 -0.8,-6.3 -2.2,-8.2 -1.7,-2 -3.8,-3 -6.5,-3 z m 38.8,28.5 0,-19.6 c 0,-3 -0.7,-5.3 -2,-6.6 -1.3,-1.4 -3.3,-2.1 -6,-2.1 -3.6,0 -6.3,0.9 -8,2.7 -1.7,1.9 -2.5,4.8 -2.5,8.9 l 0,16.7 -2.7,0 0,-30.3 2.3,0 0.5,4.2 0.2,0 c 2,-3.1 5.5,-4.8 10.5,-4.8 6.8,0 10.4,3.7 10.4,11 l 0,19.8 c 0,0.1 -2.7,0.1 -2.7,0.1 z" />
  </g>
  <g
     id="g4580"
     transform="matrix(1.897609,0,0,1.897609,-3.0518704,-456.70344)">
    <path
       style="fill:#557ebf"
       inkscape:connector-curvature="0"
       id="path8"
       d="m 21.3,445.1 14.6,0 0,47.4 -14.6,0 z" />
    <path
       style="fill:#27baa2"
       inkscape:connector-curvature="0"
       id="path10"
       d="m 64.9,445.1 14.7,0 0,47.4 -14.7,0 z" />
    <path
       style="fill:#62c3a6"
       inkscape:connector-curvature="0"
       id="path12"
       d="m 65,492.4 14.7,0 -21.9,-40.2 -14.6,0 z" />
    <path
       style="fill:#59c2ef"
       inkscape:connector-curvature="0"
       id="path14"
       d="m 35.9,492.4 -14.6,0 21.9,-40.2 14.5,0 z" />
    <g
       transform="translate(0,70.000003)"
       id="g16">
      <path
         style="fill:#557ebf"
         inkscape:connector-curvature="0"
         id="path18"
         d="m 12.7,429.7 0,-61.7 16,0 0,-9.4 -21.7,0 c -2.1,0 -3.6,1.7 -3.6,3.7 l 0,72.4 c 0,2.1 1.7,4.1 3.7,4.1 l 21.7,0 0,-9.2 -16.1,0 0,0.1 z" />
      <path
         style="fill:#27baa2"
         inkscape:connector-curvature="0"
         id="path20"
         d="m 88.3,429.7 0,-61.7 -16,0 0,-9.4 21.7,0 c 2.1,0 3.7,1.7 3.7,3.7 l 0,72.4 c 0,2.1 -1.7,4.1 -3.7,4.1 l -21.7,0 0,-9.2 16,0 0,0.1 z" />
    </g>
  </g>
  <path
     style="fill:none"
     inkscape:connector-curvature="0"
     d="m 1231.259,262.37099 -691.41703,0 0,448 691.41703,0"
     id="path4336" />
  <g
     id="g4664"
     transform="matrix(1.1595379,0,0,1.1595379,-81.82005,-78.918447)">
    <path
       id="path4156"
       d="m 595.55181,471.77873 -3.01548,-5.21681 -7.23942,12.5158 6.19832,0 4.13884,-7.15715 z"
       inkscape:connector-curvature="0"
       style="fill:#ffc107" />
    <path
       id="path4158"
       d="m 589.27405,460.92244 3.26228,5.63948 -7.23942,12.5158 -6.52455,0 z"
       inkscape:connector-curvature="0"
       style="fill:#0f9d58" />
    <g
       transform="matrix(0.28367625,0,0,0.28367625,577.37099,441.83954)"
       id="g4166"
       clip-path="url(#b)"
       style="opacity:0.2;enable-background:new">
      <defs
         id="defs4168">
        <path
           d="m 27.94,105.54 36.44,0 0,25.729 -36.44,0 z"
           id="c"
           inkscape:connector-curvature="0" />
      </defs>
      <clipPath
         id="d">
        <use
           id="use4172"
           overflow="visible"
           xlink:href="#c"
           style="overflow:visible"
           x="0"
           y="0"
           width="100%"
           height="100%" />
      </clipPath>
      <path
         id="path4174"
         d="m 49.79,130.27 -21.27,0 -0.58,1 21.85,0 14.59,-25.23 -0.29,-0.5 z"
         clip-path="url(#d)"
         inkscape:connector-curvature="0"
         style="fill:#bf360c" />
    </g>
    <g
       transform="matrix(0.28367625,0,0,0.28367625,577.37099,441.83954)"
       id="g4176"
       clip-path="url(#b)"
       style="opacity:0.2;enable-background:new">
      <defs
         id="defs4178">
        <path
           d="m 4.94,130.27 23.58,0 0,1 -23.58,0 z"
           id="e"
           inkscape:connector-curvature="0" />
      </defs>
      <clipPath
         id="f">
        <use
           id="use4182"
           overflow="visible"
           xlink:href="#e"
           style="overflow:visible"
           x="0"
           y="0"
           width="100%"
           height="100%" />
      </clipPath>
      <path
         id="path4184"
         d="m 5.52,130.27 -0.58,1 23,0 0.58,-1 z"
         clip-path="url(#f)"
         inkscape:connector-curvature="0"
         style="fill:#263238" />
    </g>
    <g
       transform="matrix(0.28367625,0,0,0.28367625,577.37099,441.83954)"
       id="g4186"
       clip-path="url(#b)"
       style="opacity:0.2;enable-background:new">
      <defs
         id="defs4188">
        <path
           d="m 4.94,67.27 37.31,0 0,64 -37.31,0 z"
           id="g"
           inkscape:connector-curvature="0" />
      </defs>
      <clipPath
         id="h">
        <use
           id="use4192"
           overflow="visible"
           xlink:href="#g"
           style="overflow:visible"
           x="0"
           y="0"
           width="100%"
           height="100%" />
      </clipPath>
      <path
         id="path4194"
         d="m 4.94,131.27 0.58,0 36.73,-63.5 -0.29,-0.5 z"
         clip-path="url(#h)"
         inkscape:connector-curvature="0"
         style="fill:#ffffff" />
    </g>
    <path
       id="path4222"
       d="m 591.77607,466.56192 3.858,0 0,5.35865 -3.858,0 z"
       mask="url(#m)"
       clip-path="url(#k)"
       inkscape:connector-curvature="0"
       style="fill:url(#n)" />
    <path
       id="path4250"
       d="m 587.71667,460.92244 4.81966,0 0,6.95319 -4.81966,0 z"
       mask="url(#s)"
       clip-path="url(#q)"
       inkscape:connector-curvature="0"
       style="fill:url(#t)" />
    <path
       id="path4252"
       d="m 585.29691,442.76716 -6.52455,0 16.86171,29.15341 3.25944,-5.63665 0.003,-0.006 z"
       inkscape:connector-curvature="0"
       style="fill:#4285f4" />
    <g
       transform="matrix(0.28367625,0,0,0.28367625,577.37099,441.83954)"
       id="g4254">
      <defs
         id="defs4256">
        <path
           d="m 568.417,290 -691.417,0 0,-448 691.417,0"
           id="u"
           inkscape:connector-curvature="0" />
      </defs>
      <clipPath
         id="v">
        <use
           id="use4260"
           overflow="visible"
           xlink:href="#u"
           style="overflow:visible"
           x="0"
           y="0"
           width="100%"
           height="100%" />
      </clipPath>
      <path
         id="path4262"
         clip-path="url(#v)"
         d="m 83.33,73.27 c 2.15,-3.71 2.15,-8.29 0,-12 l -33.54,-58 -21.85,0 47.94,82.88 7.45,-12.88 z"
         inkscape:connector-curvature="0"
         style="fill:#db4437" />
      <g
         id="g4264"
         clip-path="url(#v)"
         style="opacity:0.2;enable-background:new">
        <defs
           id="defs4266">
          <path
             d="m 4.94,3.27 70.94,0 0,102.77 -70.94,0 z"
             id="w"
             inkscape:connector-curvature="0" />
        </defs>
        <clipPath
           id="x">
          <use
             id="use4270"
             overflow="visible"
             xlink:href="#w"
             style="overflow:visible"
             x="0"
             y="0"
             width="100%"
             height="100%" />
        </clipPath>
        <path
           id="path4272"
           d="M 75.88,86.15 75.59,85.66 64.38,105.04 5.52,3.27 4.94,3.27 64.38,106.04 75.87,86.17 Z"
           clip-path="url(#x)"
           inkscape:connector-curvature="0"
           style="fill:#1a237e" />
      </g>
      <g
         id="g4274"
         clip-path="url(#v)"
         style="opacity:0.2;enable-background:new">
        <defs
           id="defs4276">
          <path
             d="m 4.94,3.27 79.98,0 0,64.5 -79.98,0 z"
             id="y"
             inkscape:connector-curvature="0" />
        </defs>
        <clipPath
           id="z">
          <use
             id="use4280"
             overflow="visible"
             xlink:href="#y"
             style="overflow:visible"
             x="0"
             y="0"
             width="100%"
             height="100%" />
        </clipPath>
        <path
           id="path4282"
           clip-path="url(#z)"
           d="m 49.79,4.27 33.54,58 c 0.99,1.71 1.5,3.6 1.58,5.5 0.09,-2.24 -0.42,-4.5 -1.58,-6.5 l -33.54,-58 -44.85,0 0.58,1 44.27,0 z"
           inkscape:connector-curvature="0"
           style="fill:#ffffff" />
      </g>
      <g
         id="g4284"
         clip-path="url(#v)"
         style="opacity:0.2;enable-background:new">
        <defs
           id="defs4286">
          <path
             d="m 75.59,66.77 9.33,0 0,19.381 -9.33,0 z"
             id="A"
             inkscape:connector-curvature="0" />
        </defs>
        <clipPath
           id="B">
          <use
             id="use4290"
             overflow="visible"
             xlink:href="#A"
             style="overflow:visible"
             x="0"
             y="0"
             width="100%"
             height="100%" />
        </clipPath>
        <path
           id="path4292"
           clip-path="url(#B)"
           d="m 75.88,86.15 7.45,-12.881 c 1.16,-2 1.67,-4.26 1.58,-6.5 -0.08,1.9 -0.59,3.79 -1.58,5.5 l -7.74,13.391 0.29,0.49 z"
           inkscape:connector-curvature="0"
           style="fill:#3e2723" />
      </g>
    </g>
    <path
       id="path4314"
       d="m 578.77236,442.76716 22.84728,0 0,36.31056 -22.84728,0 z"
       mask="url(#E)"
       inkscape:connector-curvature="0"
       style="fill:url(#F)" />
    <path
       id="path4316"
       d="m 578.77236,442.76716 10.50169,18.15528 -10.50169,18.15528 12.72287,0 9.51451,-16.45322 c 0.6099,-1.05244 0.6099,-2.35168 0,-3.40412 l -9.51451,-16.45322 -12.72287,0 z"
       inkscape:connector-curvature="0"
       style="fill:none" />
    <g
       transform="matrix(0.42966771,0,0,0.42966771,284.09614,375.54599)"
       style="font-style:normal;font-weight:normal;font-size:90px;line-height:125%;font-family:sans-serif;letter-spacing:0px;word-spacing:0px;fill:#000000;fill-opacity:1;stroke:none;stroke-width:1px;stroke-linecap:butt;stroke-linejoin:miter;stroke-opacity:1"
       id="flowRoot4481">
      <path
         d="m 836.61744,199.05037 q 0,13.86468 -8.22637,22.09105 -9.33555,9.7977 -24.30939,9.7977 -14.32683,0 -24.40182,-9.89013 -9.98256,-9.98257 -9.98256,-24.67912 0,-14.69655 9.98256,-24.58668 10.07499,-9.98256 24.40182,-9.98256 7.1172,0 13.58738,2.77293 6.47018,2.77293 10.35228,7.39449 l -5.82316,5.82316 q -6.56261,-7.85664 -18.1165,-7.85664 -10.44472,0 -18.1165,7.39449 -7.57936,7.30206 -7.57936,19.04081 0,11.73876 7.57936,19.13325 7.67178,7.30206 18.1165,7.30206 11.09174,0 18.48623,-7.39449 4.80642,-4.80642 5.54586,-13.40252 l -24.03209,0 0,-7.94908 32.0736,0 q 0.46216,2.58808 0.46216,4.99128 z"
         style="font-style:normal;font-variant:normal;font-weight:normal;font-stretch:normal;font-size:92.43113708px;line-height:126.99999809%;font-family:'Product Sans';-inkscape-font-specification:'Product Sans';fill:#ffffff"
         id="path4725"
         inkscape:connector-curvature="0" />
      <path
         d="m 846.94951,229.46022 0,-66.1807 20.24242,0 q 15.25113,0 24.40182,9.24312 9.15068,9.15068 9.15068,23.84723 0,14.69655 -9.15068,23.93967 -9.15069,9.15068 -24.40182,9.15068 l -20.24242,0 z m 8.50366,-8.13394 11.73876,0 q 11.46146,0 18.1165,-6.56261 6.74747,-6.56261 6.74747,-18.3938 0,-11.73875 -6.74747,-18.30136 -6.65504,-6.65505 -18.1165,-6.65505 l -11.73876,0 0,49.91282 z"
         style="font-style:normal;font-variant:normal;font-weight:normal;font-stretch:normal;font-size:92.43113708px;line-height:126.99999809%;font-family:'Product Sans';-inkscape-font-specification:'Product Sans';fill:#ffffff"
         id="path4727"
         inkscape:connector-curvature="0" />
      <path
         d="m 974.54203,199.05037 q 0,13.86468 -8.22637,22.09105 -9.33555,9.7977 -24.30939,9.7977 -14.32683,0 -24.40182,-9.89013 -9.98256,-9.98257 -9.98256,-24.67912 0,-14.69655 9.98256,-24.58668 10.07499,-9.98256 24.40182,-9.98256 7.1172,0 13.58738,2.77293 6.47018,2.77293 10.35228,7.39449 l -5.82316,5.82316 q -6.56261,-7.85664 -18.1165,-7.85664 -10.44472,0 -18.1165,7.39449 -7.57936,7.30206 -7.57936,19.04081 0,11.73876 7.57936,19.13325 7.67178,7.30206 18.1165,7.30206 11.09174,0 18.48623,-7.39449 4.80642,-4.80642 5.54587,-13.40252 l -24.0321,0 0,-7.94908 32.0736,0 q 0.46216,2.58808 0.46216,4.99128 z"
         style="font-style:normal;font-variant:normal;font-weight:normal;font-stretch:normal;font-size:92.43113708px;line-height:126.99999809%;font-family:'Product Sans';-inkscape-font-specification:'Product Sans';fill:#ffffff"
         id="path4729"
         inkscape:connector-curvature="0" />
      <path
         d="m 1033.8626,163.27952 0,0.36973 -24.5867,28.37636 26.2505,37.06488 0,0.36973 -10.4448,0 -21.5364,-30.872 -10.16744,11.73875 0,19.13325 -8.50366,0 0,-66.1807 8.50366,0 0,34.10709 0.36973,0 29.11581,-34.10709 10.9993,0 z"
         style="font-style:normal;font-variant:normal;font-weight:normal;font-stretch:normal;font-size:92.43113708px;line-height:126.99999809%;font-family:'Product Sans';-inkscape-font-specification:'Product Sans';fill:#ffffff"
         id="path4731"
         inkscape:connector-curvature="0" />
      <path
         d="m 1042.2825,229.46022 0,-66.1807 8.5036,0 0,58.04676 28.6537,0 0,8.13394 -37.1573,0 z"
         style="font-style:normal;font-variant:normal;font-weight:normal;font-stretch:normal;font-size:92.43113708px;line-height:126.99999809%;font-family:'Product Sans';-inkscape-font-specification:'Product Sans';fill:#ffffff"
         id="path4733"
         inkscape:connector-curvature="0" />
    </g>
    <g
       style="font-style:normal;font-weight:normal;font-size:23.01623726px;line-height:125%;font-family:sans-serif;letter-spacing:0px;word-spacing:0px;fill:#000000;fill-opacity:1;stroke:none;stroke-width:1px;stroke-linecap:butt;stroke-linejoin:miter;stroke-opacity:1"
       id="text4591">
      <path
         d="m 580.84319,416.1282 0,6.40589 -2.15777,0 0,-16.36311 6.03502,0 q 2.68598,0 4.20316,1.37109 1.52842,1.37108 1.52842,3.63 0,2.38254 -1.4947,3.67495 -1.48347,1.28118 -4.25936,1.28118 l -3.85477,0 z m 0,-1.76443 3.87725,0 q 1.73071,0 2.65226,-0.80916 0.92155,-0.8204 0.92155,-2.36006 0,-1.461 -0.92155,-2.33759 -0.92155,-0.8766 -2.52864,-0.91031 l -4.00087,0 0,6.41712 z"
         style="font-style:normal;font-variant:normal;font-weight:normal;font-stretch:normal;font-family:roboto;-inkscape-font-specification:roboto;fill:#ffffff"
         id="path4736"
         inkscape:connector-curvature="0" />
      <path
         d="m 592.19397,416.34173 q 0,-1.7869 0.69679,-3.21418 0.70801,-1.42728 1.95548,-2.20273 1.2587,-0.77545 2.86579,-0.77545 2.48368,0 4.01211,1.71948 1.53966,1.71947 1.53966,4.57403 l 0,0.1461 q 0,1.77566 -0.68555,3.1917 -0.6743,1.4048 -1.94424,2.19149 -1.2587,0.78669 -2.89951,0.78669 -2.47244,0 -4.0121,-1.71948 -1.52843,-1.71947 -1.52843,-4.55155 l 0,-0.1461 z m 2.09035,0.24725 q 0,2.02291 0.93278,3.24789 0.94403,1.22499 2.5174,1.22499 1.58462,0 2.51741,-1.23623 0.93278,-1.24746 0.93278,-3.4839 0,-2.00043 -0.95526,-3.23666 -0.94403,-1.24746 -2.5174,-1.24746 -1.53966,0 -2.48369,1.22499 -0.94402,1.22498 -0.94402,3.50638 z"
         style="font-style:normal;font-variant:normal;font-weight:normal;font-stretch:normal;font-family:roboto;-inkscape-font-specification:roboto;fill:#ffffff"
         id="path4738"
         inkscape:connector-curvature="0" />
      <path
         d="m 616.63749,419.6683 2.33759,-9.29416 2.0791,0 -3.5401,12.15995 -1.68576,0 -2.95569,-9.21549 -2.87703,9.21549 -1.68576,0 -3.52886,-12.15995 2.06787,0 2.39377,9.1031 2.83208,-9.1031 1.67452,0 2.88827,9.29416 z"
         style="font-style:normal;font-variant:normal;font-weight:normal;font-stretch:normal;font-family:roboto;-inkscape-font-specification:roboto;fill:#ffffff"
         id="path4740"
         inkscape:connector-curvature="0" />
      <path
         d="m 628.22427,422.75886 q -2.47244,0 -4.02334,-1.61833 -1.5509,-1.62957 -1.5509,-4.34926 l 0,-0.38211 q 0,-1.80938 0.68554,-3.22542 0.69678,-1.42727 1.93301,-2.2252 1.24746,-0.80917 2.69721,-0.80917 2.3713,0 3.6862,1.56214 1.31489,1.56214 1.31489,4.47288 l 0,0.86536 -8.23775,0 q 0.045,1.79814 1.04517,2.91075 1.01146,1.10136 2.56236,1.10136 1.10136,0 1.86557,-0.44954 0.76421,-0.44953 1.33737,-1.19127 l 1.26994,0.98898 q -1.52842,2.34883 -4.58527,2.34883 z m -0.25848,-10.90125 q -1.2587,0 -2.11282,0.92155 -0.85412,0.91031 -1.05641,2.56235 l 6.09121,0 0,-0.15733 q -0.0899,-1.58462 -0.85411,-2.44997 -0.76421,-0.8766 -2.06787,-0.8766 z"
         style="font-style:normal;font-variant:normal;font-weight:normal;font-stretch:normal;font-family:roboto;-inkscape-font-specification:roboto;fill:#ffffff"
         id="path4742"
         inkscape:connector-curvature="0" />
      <path
         d="m 641.23834,412.23972 q -0.47201,-0.0787 -1.0227,-0.0787 -2.04538,0 -2.77588,1.74195 l 0,8.63109 -2.0791,0 0,-12.15995 2.02291,0 0.0337,1.4048 q 1.0227,-1.62957 2.89951,-1.62957 0.60687,0 0.92155,0.15734 l 0,1.93301 z"
         style="font-style:normal;font-variant:normal;font-weight:normal;font-stretch:normal;font-family:roboto;-inkscape-font-specification:roboto;fill:#ffffff"
         id="path4744"
         inkscape:connector-curvature="0" />
      <path
         d="m 647.9589,422.75886 q -2.47245,0 -4.02335,-1.61833 -1.55089,-1.62957 -1.55089,-4.34926 l 0,-0.38211 q 0,-1.80938 0.68554,-3.22542 0.69678,-1.42727 1.933,-2.2252 1.24746,-0.80917 2.69722,-0.80917 2.3713,0 3.68619,1.56214 1.31489,1.56214 1.31489,4.47288 l 0,0.86536 -8.23774,0 q 0.0449,1.79814 1.04517,2.91075 1.01146,1.10136 2.56236,1.10136 1.10136,0 1.86557,-0.44954 0.76421,-0.44953 1.33737,-1.19127 l 1.26994,0.98898 q -1.52842,2.34883 -4.58527,2.34883 z m -0.25848,-10.90125 q -1.2587,0 -2.11282,0.92155 -0.85412,0.91031 -1.05641,2.56235 l 6.09121,0 0,-0.15733 q -0.0899,-1.58462 -0.85412,-2.44997 -0.76421,-0.8766 -2.06786,-0.8766 z"
         style="font-style:normal;font-variant:normal;font-weight:normal;font-stretch:normal;font-family:roboto;-inkscape-font-specification:roboto;fill:#ffffff"
         id="path4746"
         inkscape:connector-curvature="0" />
      <path
         d="m 654.58955,416.35297 q 0,-2.79836 1.32613,-4.49536 1.32613,-1.70824 3.47267,-1.70824 2.13529,0 3.38275,1.461 l 0,-6.33846 2.07911,0 0,17.26218 -1.91053,0 -0.10114,-1.30366 q -1.24747,1.52843 -3.47267,1.52843 -2.11282,0 -3.45019,-1.73072 -1.32613,-1.73071 -1.32613,-4.51783 l 0,-0.15734 z m 2.07911,0.23601 q 0,2.06786 0.85411,3.23665 0.85412,1.1688 2.36007,1.1688 1.97795,0 2.88826,-1.77567 l 0,-5.58548 q -0.93278,-1.71948 -2.86579,-1.71948 -1.52842,0 -2.38254,1.18003 -0.85411,1.18004 -0.85411,3.49515 z"
         style="font-style:normal;font-variant:normal;font-weight:normal;font-stretch:normal;font-family:roboto;-inkscape-font-specification:roboto;fill:#ffffff"
         id="path4748"
         inkscape:connector-curvature="0" />
      <path
         d="m 684.09035,416.58898 q 0,2.78712 -1.28118,4.48412 -1.28117,1.68576 -3.43895,1.68576 -2.30387,0 -3.56257,-1.62957 l -0.10114,1.4048 -1.91053,0 0,-17.26218 2.0791,0 0,6.4396 q 1.2587,-1.56214 3.47267,-1.56214 2.21396,0 3.47266,1.67453 1.26994,1.67452 1.26994,4.58526 l 0,0.17982 z m -2.0791,-0.23601 q 0,-2.12406 -0.82041,-3.28161 -0.8204,-1.15756 -2.36006,-1.15756 -2.05663,0 -2.9557,1.91053 l 0,5.25957 q 0.95527,1.91053 2.97818,1.91053 1.4947,0 2.32635,-1.15756 0.83164,-1.15755 0.83164,-3.4839 z"
         style="font-style:normal;font-variant:normal;font-weight:normal;font-stretch:normal;font-family:roboto;-inkscape-font-specification:roboto;fill:#ffffff"
         id="path4750"
         inkscape:connector-curvature="0" />
      <path
         d="m 690.54119,419.48848 2.83207,-9.11434 2.2252,0 -4.8887,14.03676 q -1.13508,3.03437 -3.60752,3.03437 l -0.39335,-0.0337 -0.77545,-0.1461 0,-1.68576 0.56192,0.045 q 1.05641,0 1.64081,-0.42706 0.59563,-0.42706 0.97774,-1.56214 l 0.46077,-1.23622 -4.33802,-12.02509 2.27016,0 3.03437,9.11434 z"
         style="font-style:normal;font-variant:normal;font-weight:normal;font-stretch:normal;font-family:roboto;-inkscape-font-specification:roboto;fill:#ffffff"
         id="path4752"
         inkscape:connector-curvature="0" />
    </g>
  </g>
  <rect
     style="color:#000000;clip-rule:nonzero;display:inline;overflow:visible;visibility:visible;opacity:1;isolation:auto;mix-blend-mode:normal;color-interpolation:sRGB;color-interpolation-filters:linearRGB;solid-color:#000000;solid-opacity:1;fill:#ffffff;fill-opacity:1;fill-rule:evenodd;stroke:none;stroke-width:0.98165119px;stroke-linecap:butt;stroke-linejoin:miter;stroke-miterlimit:4;stroke-dasharray:none;stroke-dashoffset:0;stroke-opacity:1;color-rendering:auto;image-rendering:auto;shape-rendering:auto;text-rendering:auto;enable-background:accumulate"
     id="rect4595"
     width="2.9001243"
     height="121.94478"
     x="535.26697"
     y="372.82764" />
</svg>
